<svg width="257" height="81" viewBox="0 0 257 81" fill="none" xmlns="http://www.w3.org/2000/svg">
<path d="M244.685 80.1692H13.1653C6.3648 80.1692 0.850586 74.6562 0.850586 67.8545V12.3147C0.850586 5.51421 6.36356 0 13.1653 0H244.685C251.486 0 257 5.51297 257 12.3147V67.8545C257 74.655 251.487 80.1692 244.685 80.1692Z" fill="black"/>
<path d="M63.4358 49.7161C63.0778 50.6047 62.7398 51.5231 62.3421 52.4155C61.0397 55.3422 59.2377 57.9458 57.1026 60.3208C56.1904 61.3361 55.1303 62.175 53.8291 62.6634C52.4496 63.1804 51.0589 63.1232 49.6807 62.6995C48.7275 62.4062 47.7991 62.0346 46.8534 61.7139C45.5447 61.269 44.205 60.9981 42.8131 61.0739C41.5467 61.1435 40.33 61.4418 39.1481 61.8879C38.0532 62.3018 36.9646 62.7243 35.8113 62.9642C34.054 63.3283 32.5129 62.8623 31.1086 61.8158C29.6707 60.7446 28.5509 59.3713 27.4722 57.9583C25.9908 56.0183 24.7269 53.9503 23.7476 51.712C22.608 49.1084 21.7654 46.4128 21.3652 43.5967C20.919 40.4612 20.929 37.3331 21.9232 34.2858C23.0989 30.6792 25.275 27.8805 28.7175 26.1568C30.5605 25.2346 32.5154 24.7909 34.5759 24.9065C35.9181 24.9823 37.187 25.4074 38.4472 25.8461C39.4886 26.209 40.5388 26.5482 41.579 26.9173C42.4365 27.2206 43.2443 27.0304 44.0608 26.7508C45.5099 26.2549 46.9565 25.7479 48.4193 25.2943C50.0945 24.7748 51.8021 24.6182 53.5569 24.8829C55.3304 25.1489 57.0131 25.636 58.5678 26.5395C59.9647 27.3511 61.1167 28.4286 62.0675 29.7832C58.1701 32.1432 56.1655 35.5435 56.4911 40.1331C56.8167 44.714 59.3843 47.7314 63.4358 49.7161Z" fill="white"/>
<path d="M52.7843 12.869C52.7843 13.5512 52.8352 14.2199 52.7756 14.8773C52.5668 17.1789 51.5639 19.145 50.0924 20.8824C49.0174 22.1513 47.7784 23.2337 46.2634 23.9595C45.0293 24.5511 43.7306 24.832 42.3325 24.7151C42.2082 24.0217 42.2406 23.322 42.3375 22.6248C42.6817 20.1566 43.8239 18.0787 45.514 16.2916C46.6226 15.1184 47.9772 14.2919 49.4599 13.6656C50.4317 13.2555 51.4346 12.9709 52.486 12.8714C52.5693 12.8615 52.655 12.869 52.7843 12.869Z" fill="white"/>
<path d="M75.9482 62.4708L86.2658 35.6056H90.096L101.092 62.4708H97.0419L93.9077 54.3343H82.6742L79.7238 62.4708H75.9482ZM83.7007 51.4386H92.809L90.0053 43.9981C89.1503 41.7375 88.5152 39.8808 88.0989 38.4267C87.7571 40.1492 87.2737 41.8593 86.6511 43.5582L83.7007 51.4386Z" fill="white"/>
<path d="M103.51 69.9299V43.0088H106.515V45.5379C107.224 44.5487 108.024 43.8067 108.916 43.3108C109.809 42.8162 110.89 42.5689 112.16 42.5689C113.822 42.5689 115.288 42.9964 116.558 43.8515C117.828 44.7065 118.788 45.9132 119.435 47.4704C120.083 49.0276 120.407 50.7352 120.407 52.5919C120.407 54.5829 120.049 56.3762 119.335 57.9707C118.62 59.5652 117.581 60.7868 116.219 61.6356C114.857 62.4845 113.424 62.9095 111.921 62.9095C110.822 62.9095 109.835 62.6771 108.962 62.2135C108.089 61.7487 107.372 61.1634 106.809 60.4538V69.9287H103.51V69.9299ZM106.498 52.8504C106.498 55.3546 107.005 57.2064 108.019 58.4032C109.033 59.6 110.261 60.199 111.703 60.199C113.169 60.199 114.424 59.5788 115.468 58.3385C116.513 57.0982 117.035 55.1769 117.035 52.5745C117.035 50.0939 116.526 48.2372 115.506 47.0031C114.485 45.7691 113.267 45.1526 111.849 45.1526C110.444 45.1526 109.201 45.8088 108.12 47.1225C107.039 48.4373 106.498 50.3462 106.498 52.8504Z" fill="white"/>
<path d="M124.384 69.9299V43.0088H127.389V45.5379C128.098 44.5487 128.898 43.8067 129.79 43.3108C130.683 42.815 131.764 42.5689 133.034 42.5689C134.696 42.5689 136.162 42.9964 137.432 43.8515C138.702 44.7065 139.662 45.9132 140.309 47.4704C140.957 49.0276 141.281 50.7352 141.281 52.5919C141.281 54.5829 140.923 56.3762 140.209 57.9707C139.494 59.5652 138.455 60.7868 137.093 61.6356C135.731 62.4845 134.298 62.9095 132.795 62.9095C131.696 62.9095 130.709 62.6771 129.836 62.2135C128.964 61.75 128.246 61.1634 127.683 60.4538V69.9287H124.384V69.9299ZM127.371 52.8504C127.371 55.3546 127.878 57.2064 128.892 58.4032C129.906 59.6 131.134 60.199 132.575 60.199C134.042 60.199 135.297 59.5788 136.341 58.3385C137.386 57.0982 137.908 55.1769 137.908 52.5745C137.908 50.0939 137.399 48.2372 136.378 47.0031C135.358 45.7691 134.14 45.1526 132.722 45.1526C131.316 45.1526 130.074 45.8088 128.992 47.1225C127.911 48.4373 127.371 50.3462 127.371 52.8504Z" fill="white"/>
<path d="M154.896 53.8397L158.25 53.5464C158.409 54.8899 158.778 55.9934 159.358 56.8547C159.939 57.7159 160.84 58.4119 162.061 58.9438C163.283 59.4757 164.658 59.7404 166.185 59.7404C167.541 59.7404 168.739 59.5391 169.777 59.1352C170.816 58.7325 171.587 58.1795 172.094 57.4773C172.601 56.7752 172.855 56.0084 172.855 55.1769C172.855 54.3343 172.61 53.5974 172.122 52.9685C171.633 52.3397 170.827 51.8115 169.703 51.3827C168.982 51.1019 167.388 50.6644 164.92 50.0728C162.452 49.48 160.723 48.9208 159.734 48.3963C158.451 47.724 157.495 46.8901 156.865 45.8946C156.236 44.8992 155.922 43.7844 155.922 42.5503C155.922 41.1944 156.307 39.9268 157.077 38.7474C157.846 37.568 158.971 36.6732 160.448 36.063C161.927 35.4515 163.57 35.1471 165.378 35.1471C167.369 35.1471 169.127 35.4677 170.646 36.109C172.168 36.7502 173.337 37.6948 174.156 38.94C174.975 40.1853 175.415 41.5971 175.476 43.1729L172.067 43.4289C171.884 41.7313 171.264 40.4475 170.207 39.5801C169.15 38.7126 167.589 38.2789 165.524 38.2789C163.374 38.2789 161.807 38.6728 160.824 39.4608C159.841 40.2487 159.348 41.1982 159.348 42.3104C159.348 43.2761 159.696 44.0702 160.394 44.6929C161.078 45.3155 162.864 45.9543 165.754 46.608C168.643 47.2617 170.625 47.8334 171.7 48.3218C173.264 49.0426 174.418 49.956 175.164 51.0621C175.91 52.1682 176.281 53.442 176.281 54.8836C176.281 56.3128 175.872 57.66 175.053 58.9239C174.234 60.1878 173.059 61.1721 171.525 61.8743C169.992 62.5765 168.267 62.9282 166.348 62.9282C163.917 62.9282 161.879 62.574 160.236 61.8656C158.593 61.1572 157.304 60.0909 156.369 58.6679C155.436 57.2449 154.945 55.6355 154.896 53.8397Z" fill="white"/>
<path d="M187.918 59.5204L188.394 62.4348C187.466 62.6299 186.634 62.728 185.902 62.728C184.705 62.728 183.776 62.5391 183.117 62.1601C182.457 61.781 181.994 61.2839 181.724 60.6663C181.456 60.0499 181.321 58.7512 181.321 56.7726V45.5752H178.903V43.0101H181.321V38.1906L184.602 36.2109V43.0101H187.919V45.5752H184.602V56.9553C184.602 57.8961 184.661 58.5014 184.776 58.7698C184.892 59.0382 185.082 59.252 185.344 59.4111C185.606 59.5701 185.983 59.6497 186.471 59.6497C186.837 59.6497 187.32 59.6062 187.918 59.5204Z" fill="white"/>
<path d="M189.917 52.7398C189.917 49.1358 190.918 46.4663 192.922 44.7313C194.596 43.2897 196.635 42.5689 199.042 42.5689C201.718 42.5689 203.905 43.4451 205.603 45.1986C207.301 46.9522 208.151 49.3744 208.151 52.4652C208.151 54.9694 207.775 56.9392 207.023 58.3758C206.271 59.8125 205.179 60.926 203.742 61.7201C202.307 62.5143 200.74 62.9107 199.042 62.9107C196.318 62.9107 194.116 62.0371 192.436 60.2897C190.757 58.5436 189.917 56.027 189.917 52.7398ZM193.307 52.7398C193.307 55.2316 193.85 57.0982 194.937 58.3385C196.025 59.5788 197.393 60.199 199.042 60.199C200.679 60.199 202.041 59.5763 203.129 58.3298C204.216 57.0833 204.759 55.1844 204.759 52.6305C204.759 50.2232 204.212 48.4 203.119 47.1597C202.025 45.9194 200.667 45.2993 199.041 45.2993C197.392 45.2993 196.024 45.9157 194.936 47.1498C193.85 48.3851 193.307 50.248 193.307 52.7398Z" fill="white"/>
<path d="M211.981 62.4708V43.0088H214.95V45.9592C215.709 44.5785 216.407 43.6688 217.048 43.2288C217.69 42.7889 218.395 42.5689 219.165 42.5689C220.277 42.5689 221.407 42.9231 222.555 43.6315L221.419 46.6924C220.613 46.2165 219.806 45.9778 219.001 45.9778C218.28 45.9778 217.632 46.1941 217.058 46.6278C216.484 47.0616 216.075 47.6631 215.83 48.4323C215.464 49.6055 215.281 50.8881 215.281 52.2812V62.4708H211.981Z" fill="white"/>
<path d="M237.839 56.2035L241.248 56.6248C240.71 58.6157 239.714 60.1617 238.26 61.2616C236.806 62.3615 234.949 62.9108 232.689 62.9108C229.841 62.9108 227.585 62.0346 225.917 60.281C224.249 58.5275 223.415 56.0693 223.415 52.9052C223.415 49.6304 224.258 47.0902 225.944 45.2819C227.631 43.4737 229.817 42.5702 232.505 42.5702C235.107 42.5702 237.232 43.4563 238.883 45.2273C240.532 46.9982 241.357 49.4912 241.357 52.7038C241.357 52.8989 241.351 53.1922 241.338 53.5837H226.824C226.946 55.7213 227.551 57.3593 228.638 58.4952C229.726 59.6311 231.082 60.199 232.707 60.199C233.917 60.199 234.949 59.8809 235.804 59.2458C236.661 58.6107 237.338 57.5966 237.839 56.2035ZM227.008 50.8707H237.876C237.729 49.234 237.314 48.0061 236.63 47.1871C235.579 45.917 234.216 45.2807 232.543 45.2807C231.028 45.2807 229.754 45.7877 228.722 46.8019C227.689 47.816 227.119 49.1731 227.008 50.8707Z" fill="white"/>
<path d="M75.9482 31.9159V17.0236H81.0784C82.2367 17.0236 83.1203 17.0945 83.7293 17.2374C84.5831 17.4338 85.3101 17.7892 85.9128 18.3037C86.6983 18.9673 87.2861 19.8162 87.6751 20.8489C88.0641 21.8817 88.2592 23.0623 88.2592 24.3896C88.2592 25.5205 88.1275 26.5234 87.8628 27.3971C87.5981 28.2708 87.26 28.9941 86.8474 29.5658C86.4348 30.1374 85.9825 30.5886 85.4916 30.9167C85.0007 31.2448 84.4078 31.4946 83.7144 31.6636C83.0197 31.8326 82.223 31.9171 81.322 31.9171H75.9482V31.9159ZM77.9193 30.1586H81.0983C82.0801 30.1586 82.8506 30.0666 83.4099 29.8839C83.9691 29.7012 84.4141 29.444 84.7459 29.1122C85.2132 28.6449 85.5773 28.0173 85.8383 27.2281C86.0993 26.4389 86.2298 25.482 86.2298 24.3585C86.2298 22.8013 85.9737 21.6033 85.463 20.7669C84.9522 19.9305 84.3308 19.37 83.5988 19.0854C83.0706 18.8828 82.2206 18.7809 81.0486 18.7809H77.9193V30.1586Z" fill="white"/>
<path d="M90.0586 26.5222C90.0586 24.5238 90.6141 23.0449 91.7252 22.083C92.6535 21.2839 93.7844 20.8837 95.1179 20.8837C96.6006 20.8837 97.8135 21.3696 98.7543 22.3415C99.6951 23.3133 100.166 24.6555 100.166 26.3693C100.166 27.7575 99.9573 28.8499 99.541 29.6453C99.1247 30.4407 98.5182 31.0596 97.7228 31.4995C96.9274 31.9395 96.0587 32.1594 95.1167 32.1594C93.6067 32.1594 92.3863 31.6747 91.4542 30.7066C90.5234 29.7385 90.0586 28.3441 90.0586 26.5222ZM91.9377 26.5222C91.9377 27.9041 92.2384 28.9381 92.8412 29.6254C93.4439 30.3127 94.202 30.6569 95.1167 30.6569C96.0239 30.6569 96.7795 30.3114 97.3823 29.6204C97.985 28.9294 98.2858 27.8768 98.2858 26.4613C98.2858 25.1265 97.9825 24.1162 97.3761 23.4289C96.7696 22.7416 96.0165 22.3974 95.1155 22.3974C94.2008 22.3974 93.4427 22.7392 92.8399 23.4239C92.2397 24.1075 91.9377 25.1402 91.9377 26.5222Z" fill="white"/>
<path d="M104.301 31.9158L100.999 21.1273H102.888L104.604 27.3548L105.244 29.6714C105.271 29.5558 105.458 28.8151 105.803 27.4468L107.519 21.1285H109.398L111.014 27.3859L111.552 29.4477L112.172 27.3648L114.022 21.1273H115.799L112.426 31.9158H110.526L108.809 25.4546L108.393 23.6153L106.21 31.9146H104.301V31.9158Z" fill="white"/>
<path d="M117.334 31.9158V21.1273H118.979V22.6609C119.772 21.4752 120.917 20.8837 122.413 20.8837C123.063 20.8837 123.661 21.0005 124.207 21.2341C124.752 21.4678 125.16 21.7748 125.431 22.1538C125.702 22.5329 125.892 22.984 126 23.5047C126.067 23.8427 126.102 24.4355 126.102 25.2819V31.9158H124.274V25.354C124.274 24.6095 124.203 24.0515 124.06 23.6824C123.918 23.3133 123.666 23.0188 123.303 22.7988C122.94 22.5788 122.516 22.4682 122.028 22.4682C121.249 22.4682 120.576 22.7155 120.011 23.2102C119.445 23.7048 119.162 24.6431 119.162 26.0238V31.9158H117.334Z" fill="white"/>
<path d="M128.863 31.9158V17.0236H130.691V31.9158H128.863Z" fill="white"/>
<path d="M132.846 26.5222C132.846 24.5238 133.402 23.0449 134.513 22.083C135.441 21.2839 136.572 20.8837 137.906 20.8837C139.388 20.8837 140.601 21.3696 141.542 22.3415C142.483 23.3133 142.954 24.6555 142.954 26.3693C142.954 27.7575 142.745 28.8499 142.329 29.6453C141.912 30.4407 141.306 31.0596 140.51 31.4995C139.715 31.9395 138.846 32.1594 137.904 32.1594C136.394 32.1594 135.174 31.6747 134.242 30.7066C133.31 29.7385 132.846 28.3441 132.846 26.5222ZM134.725 26.5222C134.725 27.9041 135.026 28.9381 135.629 29.6254C136.232 30.3127 136.99 30.6569 137.904 30.6569C138.812 30.6569 139.567 30.3114 140.17 29.6204C140.773 28.9294 141.073 27.8768 141.073 26.4613C141.073 25.1265 140.77 24.1162 140.164 23.4289C139.557 22.7416 138.804 22.3974 137.903 22.3974C136.988 22.3974 136.23 22.7392 135.628 23.4239C135.026 24.1075 134.725 25.1402 134.725 26.5222Z" fill="white"/>
<path d="M152.137 30.5861C151.459 31.1615 150.808 31.5678 150.182 31.8052C149.556 32.0426 148.883 32.1607 148.165 32.1607C146.979 32.1607 146.068 31.8711 145.432 31.292C144.796 30.7128 144.478 29.9734 144.478 29.0723C144.478 28.5442 144.598 28.062 144.838 27.6245C145.078 27.1871 145.393 26.8378 145.782 26.5731C146.171 26.3084 146.61 26.1096 147.099 25.9741C147.458 25.8796 148 25.7877 148.724 25.6994C150.201 25.523 151.288 25.3129 151.985 25.0694C151.991 24.8183 151.995 24.6592 151.995 24.5921C151.995 23.8477 151.822 23.322 151.477 23.0175C151.01 22.6049 150.315 22.3974 149.394 22.3974C148.534 22.3974 147.899 22.5478 147.489 22.8497C147.079 23.1505 146.775 23.6849 146.579 24.4492L144.791 24.2056C144.954 23.4401 145.221 22.8224 145.594 22.3514C145.966 21.8804 146.505 21.5187 147.209 21.264C147.914 21.0104 148.729 20.8824 149.657 20.8824C150.578 20.8824 151.326 20.9906 151.902 21.208C152.477 21.4255 152.901 21.6977 153.172 22.0258C153.443 22.3539 153.633 22.769 153.741 23.2698C153.802 23.5817 153.833 24.1435 153.833 24.9563V27.3946C153.833 29.0947 153.872 30.1697 153.95 30.6196C154.028 31.0695 154.182 31.502 154.412 31.9146H152.502C152.313 31.5368 152.191 31.0931 152.137 30.5861ZM151.984 26.5023C151.32 26.7732 150.325 27.0031 148.998 27.1933C148.246 27.3014 147.714 27.4232 147.403 27.5586C147.091 27.6941 146.851 27.8917 146.682 28.1527C146.513 28.4137 146.429 28.7032 146.429 29.0214C146.429 29.5086 146.613 29.915 146.982 30.2406C147.351 30.5662 147.891 30.7277 148.602 30.7277C149.307 30.7277 149.933 30.5736 150.481 30.2654C151.029 29.9572 151.433 29.5359 151.691 29.0003C151.887 28.5877 151.985 27.9775 151.985 27.1721V26.5023H151.984Z" fill="white"/>
<path d="M163.667 31.9158V30.555C162.983 31.625 161.977 32.1594 160.649 32.1594C159.789 32.1594 158.999 31.9221 158.277 31.4486C157.556 30.9751 156.997 30.3127 156.6 29.4626C156.204 28.6125 156.006 27.6357 156.006 26.5321C156.006 25.4559 156.185 24.4778 156.544 23.6016C156.904 22.7242 157.442 22.0519 158.16 21.5846C158.878 21.1173 159.68 20.8837 160.567 20.8837C161.217 20.8837 161.796 21.0204 162.305 21.295C162.813 21.5697 163.226 21.9264 163.544 22.3663V17.0224H165.362V31.9146H163.667V31.9158ZM157.887 26.5321C157.887 27.9141 158.177 28.9468 158.76 29.6304C159.343 30.3139 160.03 30.6569 160.822 30.6569C161.621 30.6569 162.3 30.3301 162.859 29.6763C163.418 29.0226 163.697 28.0259 163.697 26.685C163.697 25.2086 163.412 24.1249 162.843 23.4339C162.274 22.7429 161.573 22.3974 160.74 22.3974C159.927 22.3974 159.249 22.7292 158.703 23.3929C158.159 24.0565 157.887 25.1029 157.887 26.5321Z" fill="white"/>
<path d="M173.338 26.5222C173.338 24.5238 173.893 23.0449 175.004 22.083C175.933 21.2839 177.064 20.8837 178.397 20.8837C179.88 20.8837 181.093 21.3696 182.034 22.3415C182.974 23.3133 183.445 24.6555 183.445 26.3693C183.445 27.7575 183.237 28.8499 182.82 29.6453C182.404 30.4407 181.797 31.0596 181.002 31.4995C180.207 31.9395 179.338 32.1594 178.396 32.1594C176.886 32.1594 175.666 31.6747 174.734 30.7066C173.801 29.7385 173.338 28.3441 173.338 26.5222ZM175.217 26.5222C175.217 27.9041 175.519 28.9381 176.12 29.6254C176.723 30.3127 177.481 30.6569 178.396 30.6569C179.303 30.6569 180.059 30.3114 180.662 29.6204C181.264 28.9294 181.565 27.8768 181.565 26.4613C181.565 25.1265 181.262 24.1162 180.655 23.4289C180.049 22.7416 179.296 22.3974 178.395 22.3974C177.48 22.3974 176.722 22.7392 176.119 23.4239C175.519 24.1075 175.217 25.1402 175.217 26.5222Z" fill="white"/>
<path d="M185.588 31.9158V21.1273H187.233V22.6609C188.026 21.4752 189.171 20.8837 190.667 20.8837C191.317 20.8837 191.915 21.0005 192.46 21.2341C193.006 21.4678 193.414 21.7748 193.685 22.1538C193.956 22.5329 194.146 22.984 194.254 23.5047C194.321 23.8427 194.356 24.4355 194.356 25.2819V31.9158H192.528V25.354C192.528 24.6095 192.457 24.0515 192.314 23.6824C192.172 23.3133 191.92 23.0188 191.557 22.7988C191.194 22.5788 190.77 22.4682 190.282 22.4682C189.503 22.4682 188.83 22.7155 188.265 23.2102C187.699 23.7048 187.416 24.6431 187.416 26.0238V31.9158H185.588Z" fill="white"/>
<path d="M206.932 30.2803L207.196 31.8959C206.682 32.0041 206.221 32.0588 205.815 32.0588C205.151 32.0588 204.636 31.9544 204.271 31.7443C203.906 31.5343 203.648 31.2584 203.499 30.9166C203.35 30.5749 203.276 29.8553 203.276 28.7579V22.5515H201.935V21.1297H203.276V18.4578L205.094 17.3604V21.1297H206.932V22.5515H205.094V28.8598C205.094 29.3818 205.126 29.7161 205.191 29.8652C205.255 30.0144 205.36 30.1324 205.505 30.2207C205.65 30.3089 205.859 30.3524 206.13 30.3524C206.332 30.3524 206.6 30.3288 206.932 30.2803Z" fill="white"/>
<path d="M208.719 31.9158V17.0236H210.547V22.3676C211.401 21.3783 212.477 20.8849 213.777 20.8849C214.576 20.8849 215.271 21.0428 215.86 21.3572C216.449 21.6716 216.871 22.1078 217.125 22.6621C217.379 23.2176 217.507 24.0229 217.507 25.0793V31.9158H215.679V25.0793C215.679 24.1646 215.481 23.4997 215.085 23.0834C214.688 22.6671 214.128 22.4583 213.403 22.4583C212.861 22.4583 212.352 22.5987 211.875 22.8796C211.397 23.1604 211.057 23.542 210.854 24.0229C210.652 24.5039 210.55 25.1675 210.55 26.0139V31.9158H208.719Z" fill="white"/>
<path d="M227.675 28.4423L229.564 28.6759C229.266 29.7795 228.714 30.637 227.909 31.246C227.104 31.8549 226.074 32.1607 224.821 32.1607C223.242 32.1607 221.992 31.6747 221.068 30.7029C220.143 29.731 219.681 28.3677 219.681 26.6141C219.681 24.7997 220.148 23.3904 221.083 22.3887C222.017 21.3858 223.229 20.8849 224.719 20.8849C226.162 20.8849 227.34 21.3758 228.255 22.3576C229.169 23.3394 229.625 24.7214 229.625 26.5023C229.625 26.6104 229.622 26.7732 229.615 26.9895H221.57C221.638 28.1751 221.972 29.0823 222.575 29.7124C223.178 30.3425 223.93 30.6569 224.831 30.6569C225.501 30.6569 226.074 30.4804 226.547 30.1287C227.022 29.7758 227.397 29.214 227.675 28.4423ZM221.672 25.4857H227.695C227.615 24.5785 227.383 23.8974 227.004 23.4438C226.422 22.7391 225.667 22.3874 224.739 22.3874C223.899 22.3874 223.193 22.6683 222.621 23.23C222.049 23.793 221.732 24.5449 221.672 25.4857Z" fill="white"/>
</svg>
