<svg width="43" height="56" viewBox="0 0 43 56" fill="none" xmlns="http://www.w3.org/2000/svg">
<path d="M42.9036 8.4979V53.5899C42.9036 53.8445 42.8535 54.0967 42.756 54.3319C42.6586 54.5671 42.5158 54.7809 42.3357 54.9609C42.1557 55.141 41.942 55.2838 41.7067 55.3812C41.4715 55.4787 41.2194 55.5288 40.9647 55.5288H5.20158C4.94691 55.529 4.6947 55.479 4.45938 55.3816C4.22406 55.2842 4.01025 55.1414 3.83017 54.9613C3.65009 54.7813 3.50728 54.5674 3.40991 54.3321C3.31254 54.0968 3.26251 53.8446 3.2627 53.5899V1.94029C3.26251 1.68555 3.31253 1.43328 3.40988 1.19788C3.50724 0.96248 3.65002 0.748573 3.83009 0.568382C4.01015 0.388191 4.22395 0.245249 4.45928 0.147723C4.6946 0.0501969 4.94684 -6.69779e-08 5.20158 0H34.4043L42.9036 8.4979Z" fill="#ECECEC"/>
<path d="M42.9025 8.4979V53.5899C42.9021 54.104 42.6977 54.597 42.3342 54.9605C41.9707 55.324 41.4777 55.5284 40.9636 55.5288H38.1938C38.7079 55.5284 39.2008 55.324 39.5644 54.9605C39.9279 54.597 40.1323 54.104 40.1327 53.5899V8.4979L31.6348 0H34.4032L42.9025 8.4979Z" fill="#E5E5E5"/>
<path d="M42.9036 8.4979H36.3446C35.8302 8.4979 35.3369 8.29367 34.9731 7.9301C34.6093 7.56653 34.4047 7.07337 34.4043 6.55902V0L42.9036 8.4979Z" fill="#A4A4A4"/>
<path d="M34.7122 23.4854H11.6832C10.9052 23.4854 10.2744 24.1161 10.2744 24.8942C10.2744 25.6722 10.9052 26.303 11.6832 26.303H34.7122C35.4903 26.303 36.121 25.6722 36.121 24.8942C36.121 24.1161 35.4903 23.4854 34.7122 23.4854Z" fill="#A4A4A4"/>
<path d="M34.7122 30.6982H11.6832C10.9052 30.6982 10.2744 31.329 10.2744 32.1071C10.2744 32.8851 10.9052 33.5159 11.6832 33.5159H34.7122C35.4903 33.5159 36.121 32.8851 36.121 32.1071C36.121 31.329 35.4903 30.6982 34.7122 30.6982Z" fill="#A4A4A4"/>
<path d="M34.7122 37.9102H11.6832C10.9052 37.9102 10.2744 38.5409 10.2744 39.319C10.2744 40.097 10.9052 40.7278 11.6832 40.7278H34.7122C35.4903 40.7278 36.121 40.097 36.121 39.319C36.121 38.5409 35.4903 37.9102 34.7122 37.9102Z" fill="#A4A4A4"/>
<path d="M1.07701 10.0156H19.4732C19.7588 10.0156 20.0328 10.1291 20.2347 10.3311C20.4367 10.533 20.5502 10.807 20.5502 11.0926V17.9033C20.5502 18.189 20.4367 18.4629 20.2347 18.6649C20.0328 18.8668 19.7588 18.9803 19.4732 18.9803H8.26067e-06V11.0968C-0.00054705 10.9551 0.0269003 10.8146 0.080776 10.6834C0.134652 10.5522 0.213895 10.433 0.313959 10.3326C0.414023 10.2321 0.532939 10.1524 0.663883 10.098C0.794826 10.0436 0.935219 10.0156 1.07701 10.0156Z" fill="#F55B4B"/>
<path d="M20.5502 17.768V17.9086C20.5502 18.1943 20.4367 18.4682 20.2347 18.6702C20.0328 18.8722 19.7588 18.9856 19.4732 18.9856H0V11.0965C0 10.8109 0.113469 10.537 0.315446 10.335C0.517423 10.133 0.791362 10.0195 1.077 10.0195H1.62675V12.8273C1.62675 13.4767 1.75465 14.1197 2.00316 14.7197C2.25166 15.3196 2.61591 15.8647 3.07508 16.3239C3.53426 16.7831 4.07939 17.1473 4.67933 17.3958C5.27928 17.6443 5.9223 17.7722 6.57167 17.7722L20.5502 17.768Z" fill="#DD4E43"/>
<path d="M0 18.9805L3.26193 22.6994V18.9805H0Z" fill="#DB1B1B"/>
<path d="M5.27047 16.2018V17.1466H2.3291V16.2018H3.0321V12.504H2.3291V11.5605H5.27187C5.958 11.5605 6.4876 11.7208 6.86066 12.0414C7.04628 12.2012 7.19331 12.401 7.29071 12.6258C7.38811 12.8505 7.43336 13.0944 7.42306 13.3391C7.42728 13.6322 7.3597 13.9218 7.22622 14.1827C7.1119 14.4172 6.93841 14.6179 6.72287 14.7648C6.50985 14.9049 6.27074 15.0006 6.01987 15.046C5.69477 15.1009 5.36532 15.1259 5.03566 15.1206H4.50138V16.2018H5.27047ZM4.49154 14.187H4.70806C5.20766 14.187 5.52823 14.1059 5.66977 13.9437C5.81513 13.7765 5.89196 13.5606 5.88489 13.3391C5.89254 13.1554 5.84345 12.9738 5.74429 12.8189C5.66621 12.692 5.54486 12.5976 5.40263 12.5532C5.19465 12.5136 4.98294 12.4971 4.77133 12.504H4.49857L4.49154 14.187Z" fill="#ECECEC"/>
<path d="M7.76172 17.1389V16.2011H8.60532V12.5033H7.76172V11.5599H10.4078C10.8585 11.5513 11.309 11.5852 11.7534 11.6611C12.1086 11.7372 12.4422 11.8925 12.7291 12.1153C13.051 12.3638 13.3073 12.6871 13.4757 13.0573C13.6672 13.4668 13.7633 13.9143 13.7569 14.3663C13.7589 14.7454 13.6923 15.1217 13.5601 15.477C13.4516 15.7862 13.2861 16.0724 13.0722 16.3206C12.8751 16.538 12.6359 16.713 12.3692 16.8352C12.1331 16.9508 11.8824 17.0341 11.624 17.0827C11.2758 17.127 10.9247 17.1458 10.5737 17.1389H7.76172ZM10.0634 16.2011H10.412C10.7553 16.2152 11.0978 16.1592 11.4187 16.0366C11.6776 15.9164 11.8879 15.7116 12.0149 15.4559C12.1785 15.1183 12.2558 14.7453 12.2398 14.3705C12.2508 13.9964 12.1733 13.6249 12.0135 13.2865C11.8876 13.0156 11.67 12.7979 11.3991 12.672C11.0857 12.5499 10.7509 12.4925 10.4149 12.5033H10.0634V16.2011Z" fill="#ECECEC"/>
<path d="M14.3965 17.1396V16.2018H15.1951V12.504H14.3965V11.5605H19.3962V13.2829H18.3277V12.504H16.6489V13.7961H17.8581V14.7409H16.6489V16.2018H17.515V17.1466L14.3965 17.1396Z" fill="#ECECEC"/>
<path d="M3.2627 18.9805H19.5246V19.4023C19.5246 19.9851 19.293 20.5441 18.8809 20.9562C18.4688 21.3683 17.9098 21.5999 17.327 21.5999H3.26691V18.9805H3.2627Z" fill="#E5E5E5"/>
</svg>
