<svg width="50" height="39" viewBox="0 0 50 39" fill="none" xmlns="http://www.w3.org/2000/svg">
<path d="M45.8775 33.2773H14.4062" stroke="#37695F" stroke-width="1.69395" stroke-miterlimit="10" stroke-linecap="round" stroke-linejoin="round"/>
<path d="M8.09668 16.6065V10.2967H15.2634H43.4628V30.862C43.4628 31.5631 43.7744 32.1084 44.1639 32.5758C44.6313 33.0432 45.1766 33.2769 45.8777 33.2769C47.202 33.2769 48.2926 32.1863 48.2926 30.862V8.42708C48.2926 7.1028 47.202 6.01221 45.8777 6.01221H27.2598C26.3251 6.01221 25.4682 5.46692 25.0787 4.68793L24.2997 3.12995C23.9102 2.27306 23.0533 1.80566 22.1185 1.80566H17.6004C16.2761 1.80566 15.1855 2.89625 15.1855 4.22053V10.2967" stroke="#37695F" stroke-width="1.69395" stroke-miterlimit="10" stroke-linecap="round" stroke-linejoin="round"/>
<path d="M5.44814 28.8369H1.70898L8.09671 19.4111L14.4065 28.8369H10.6674V38.029H5.44814V28.8369Z" stroke="#37695F" stroke-width="1.69395" stroke-miterlimit="10" stroke-linecap="round" stroke-linejoin="round"/>
</svg>
