<svg width="30" height="31" viewBox="0 0 30 31" fill="none" xmlns="http://www.w3.org/2000/svg">
<path fill-rule="evenodd" clip-rule="evenodd" d="M29.9 15.6971C29.9 14.6334 29.8045 13.6107 29.6273 12.6289H15.5V18.4311H23.5727C23.225 20.3061 22.1682 21.8948 20.5795 22.9584V26.7221H25.4273C28.2636 24.1107 29.9 20.2652 29.9 15.6971Z" fill="#4285F4"/>
<path fill-rule="evenodd" clip-rule="evenodd" d="M15.5 30.3561C19.55 30.3561 22.9455 29.0129 25.4273 26.722L20.5795 22.9584C19.2364 23.8584 17.5182 24.3902 15.5 24.3902C11.5932 24.3902 8.28637 21.7516 7.10682 18.2061H2.09546V22.0925C4.56364 26.9948 9.63637 30.3561 15.5 30.3561Z" fill="#34A853"/>
<path fill-rule="evenodd" clip-rule="evenodd" d="M7.10682 18.2061C6.80682 17.3061 6.63636 16.3448 6.63636 15.3561C6.63636 14.3675 6.80682 13.4061 7.10682 12.5061V8.61978H2.09545C1.07955 10.6448 0.5 12.9357 0.5 15.3561C0.5 17.7766 1.07955 20.0675 2.09545 22.0925L7.10682 18.2061Z" fill="#FBBC05"/>
<path fill-rule="evenodd" clip-rule="evenodd" d="M15.5 6.32205C17.7023 6.32205 19.6796 7.07887 21.2341 8.56523L25.5364 4.26296C22.9386 1.8425 19.5432 0.35614 15.5 0.35614C9.63637 0.35614 4.56364 3.7175 2.09546 8.61978L7.10682 12.5061C8.28637 8.96069 11.5932 6.32205 15.5 6.32205Z" fill="#EA4335"/>
</svg>
