<svg width="257" height="81" viewBox="0 0 257 81" fill="none" xmlns="http://www.w3.org/2000/svg">
<path d="M243.835 80.1692H12.3147C5.51421 80.1692 0 74.6562 0 67.8545V12.3147C0 5.51421 5.51297 0 12.3147 0H243.835C250.635 0 256.149 5.51297 256.149 12.3147V67.8545C256.149 74.6562 250.636 80.1692 243.835 80.1692Z" fill="black"/>
<path d="M46.3133 38.8407L32.4451 27.2108L18.5483 15.556V14.3778C18.5483 12.4192 20.6511 11.1802 22.3662 12.1296L44.5734 24.4381L54.9593 30.1959L46.3133 38.8407Z" fill="#00F076"/>
<path d="M18.5474 63.3482V62.1725L32.4441 50.5177L46.2564 38.935L54.89 47.5686L44.5724 53.2879L22.3652 65.5989C20.6501 66.5471 18.5474 65.3068 18.5474 63.3482Z" fill="#F1314B"/>
<path d="M18.5474 62.1725V15.5559L32.4454 27.2107L46.3135 38.8406L46.3421 38.863L46.2564 38.935L32.4454 50.5177L18.5474 62.1725Z" fill="white"/>
<path d="M18.5474 62.1725V15.5559L32.4454 27.2107L46.3135 38.8406L46.3421 38.863L46.2564 38.935L32.4454 50.5177L18.5474 62.1725Z" fill="#00D3FF"/>
<path d="M54.8895 47.5686L46.2559 38.935L46.3404 38.863L46.3118 38.8406L54.9566 30.1958L66.5368 36.6148C68.3028 37.5941 68.3028 40.1331 66.5368 41.1111L54.8895 47.5686Z" fill="#FFC400"/>
<path d="M46.2567 38.9363L46.2378 38.9174L46.3146 38.8406L46.3436 38.8633L46.2567 38.9363Z" fill="white"/>
<path d="M86.049 52.6069V49.1296H95.0293V57.3506C94.1569 58.1957 92.8917 58.9389 91.2364 59.5814C89.581 60.2239 87.9032 60.5458 86.2043 60.5458C84.0456 60.5458 82.1641 60.0934 80.5596 59.1874C78.9552 58.2814 77.7485 56.9865 76.9419 55.3025C76.1353 53.6185 75.7314 51.7854 75.7314 49.8057C75.7314 47.6569 76.1813 45.7468 77.0823 44.0765C77.9834 42.4062 79.3019 41.1249 81.0381 40.2338C82.3617 39.549 84.0084 39.206 85.9794 39.206C88.5408 39.206 90.5429 39.7429 91.9833 40.8179C93.4237 41.8929 94.3508 43.378 94.7634 45.2733L90.6249 46.0475C90.3341 45.0334 89.7873 44.2343 88.9844 43.6477C88.1816 43.0611 87.1799 42.7678 85.9794 42.7678C84.1587 42.7678 82.7109 43.3445 81.6371 44.499C80.5621 45.6535 80.0252 47.3661 80.0252 49.6367C80.0252 52.0862 80.5696 53.923 81.6583 55.1471C82.7469 56.3713 84.1736 56.984 85.9372 56.984C86.8096 56.984 87.6845 56.8125 88.5619 56.4707C89.4393 56.1277 90.1924 55.7126 90.8213 55.2254V52.6069H86.049Z" fill="white"/>
<path d="M97.9297 52.5075C97.9297 51.1938 98.2541 49.9225 98.9015 48.6934C99.549 47.4643 100.466 46.526 101.653 45.8785C102.84 45.231 104.166 44.9066 105.63 44.9066C107.892 44.9066 109.745 45.6411 111.19 47.1101C112.635 48.579 113.358 50.4345 113.358 52.6777C113.358 54.9396 112.628 56.8137 111.169 58.3013C109.71 59.7889 107.873 60.5321 105.659 60.5321C104.289 60.5321 102.982 60.2226 101.739 59.6025C100.495 58.9836 99.5503 58.0751 98.9028 56.8783C98.2528 55.6828 97.9297 54.225 97.9297 52.5075ZM101.984 52.7187C101.984 54.2014 102.335 55.3373 103.039 56.1252C103.742 56.9131 104.611 57.3071 105.642 57.3071C106.674 57.3071 107.54 56.9131 108.24 56.1252C108.939 55.3373 109.289 54.1914 109.289 52.6901C109.289 51.2262 108.939 50.1002 108.24 49.3123C107.54 48.5243 106.675 48.1304 105.642 48.1304C104.61 48.1304 103.742 48.5243 103.039 49.3123C102.335 50.1014 101.984 51.2361 101.984 52.7187Z" fill="white"/>
<path d="M115.539 52.5075C115.539 51.1938 115.863 49.9225 116.51 48.6934C117.158 47.4643 118.075 46.526 119.262 45.8785C120.449 45.231 121.775 44.9066 123.239 44.9066C125.501 44.9066 127.354 45.6411 128.799 47.1101C130.244 48.579 130.966 50.4345 130.966 52.6777C130.966 54.9396 130.237 56.8137 128.778 58.3013C127.319 59.7889 125.482 60.5321 123.267 60.5321C121.898 60.5321 120.59 60.2226 119.348 59.6025C118.105 58.9823 117.159 58.0751 116.512 56.8783C115.863 55.6828 115.539 54.225 115.539 52.5075ZM119.593 52.7187C119.593 54.2014 119.944 55.3373 120.648 56.1252C121.351 56.9131 122.22 57.3071 123.251 57.3071C124.284 57.3071 125.149 56.9131 125.849 56.1252C126.548 55.3373 126.898 54.1914 126.898 52.6901C126.898 51.2262 126.548 50.1002 125.849 49.3123C125.149 48.5243 124.284 48.1304 123.251 48.1304C122.219 48.1304 121.351 48.5243 120.648 49.3123C119.944 50.1014 119.593 51.2361 119.593 52.7187Z" fill="white"/>
<path d="M133.697 61.1796L138.216 61.7289C138.29 62.2546 138.464 62.6162 138.736 62.8126C139.112 63.0947 139.703 63.2351 140.51 63.2351C141.542 63.2351 142.317 63.0798 142.832 62.7703C143.179 62.564 143.443 62.2309 143.62 61.7711C143.742 61.443 143.803 60.8378 143.803 59.9554V57.7731C142.621 59.3875 141.129 60.194 139.327 60.194C137.318 60.194 135.727 59.3452 134.554 57.6463C133.635 56.3041 133.175 54.6338 133.175 52.6354C133.175 50.13 133.778 48.2149 134.983 46.8926C136.189 45.569 137.689 44.9078 139.481 44.9078C141.33 44.9078 142.855 45.7194 144.055 47.3424V45.2446H147.758V58.6592C147.758 60.4239 147.612 61.7425 147.321 62.615C147.031 63.4874 146.622 64.1722 146.097 64.6705C145.572 65.1676 144.871 65.5579 143.993 65.8387C143.116 66.1208 142.006 66.2613 140.664 66.2613C138.13 66.2613 136.333 65.8275 135.273 64.9588C134.213 64.0914 133.682 62.9903 133.682 61.658C133.683 61.5263 133.688 61.3672 133.697 61.1796ZM137.23 52.4093C137.23 53.995 137.537 55.157 138.152 55.8928C138.767 56.6297 139.524 56.9976 140.425 56.9976C141.392 56.9976 142.209 56.6198 142.875 55.8642C143.541 55.1086 143.874 53.9901 143.874 52.5074C143.874 50.9589 143.555 49.8094 142.917 49.0587C142.279 48.3081 141.472 47.9328 140.496 47.9328C139.548 47.9328 138.767 48.3006 138.152 49.0376C137.538 49.7746 137.23 50.898 137.23 52.4093Z" fill="white"/>
<path d="M151.672 60.194V39.5577H155.628V60.194H151.672Z" fill="white"/>
<path d="M168.34 55.4354L172.28 56.0966C171.773 57.542 170.974 58.6418 169.881 59.3974C168.787 60.153 167.42 60.5308 165.777 60.5308C163.177 60.5308 161.253 59.682 160.005 57.9831C159.02 56.6223 158.528 54.9048 158.528 52.8306C158.528 50.3537 159.175 48.4125 160.47 47.0094C161.765 45.6063 163.403 44.9054 165.383 44.9054C167.608 44.9054 169.362 45.6398 170.647 47.1088C171.932 48.5778 172.548 50.8272 172.492 53.8584H162.582C162.61 55.0315 162.929 55.9437 163.539 56.5962C164.149 57.2487 164.908 57.5743 165.819 57.5743C166.438 57.5743 166.959 57.4052 167.381 57.0672C167.804 56.7292 168.123 56.1861 168.34 55.4354ZM168.565 51.4387C168.536 50.2941 168.24 49.4229 167.677 48.8276C167.114 48.2323 166.429 47.934 165.622 47.934C164.758 47.934 164.045 48.2484 163.482 48.8773C162.919 49.5061 162.641 50.3599 162.651 51.4387H168.565Z" fill="white"/>
<path d="M183.752 60.194V39.5577H190.439C192.973 39.5577 194.624 39.6608 195.394 39.8671C196.575 40.1766 197.566 40.8502 198.364 41.8866C199.162 42.9231 199.561 44.2629 199.561 45.9058C199.561 47.1722 199.331 48.2373 198.871 49.101C198.411 49.9647 197.827 50.642 197.119 51.1354C196.41 51.6276 195.689 51.9544 194.957 52.1135C193.963 52.3111 192.523 52.4093 190.636 52.4093H187.919V60.194H183.752ZM187.919 43.0487V48.9046H190.2C191.842 48.9046 192.94 48.7965 193.493 48.5803C194.048 48.364 194.481 48.026 194.796 47.5662C195.11 47.1063 195.267 46.5719 195.267 45.9617C195.267 45.2111 195.047 44.5922 194.606 44.1038C194.164 43.6154 193.606 43.3109 192.93 43.1891C192.433 43.0946 191.434 43.0487 189.932 43.0487H187.919Z" fill="white"/>
<path d="M202.954 60.194V39.5577H206.909V60.194H202.954Z" fill="white"/>
<path d="M213.919 49.8056L210.33 49.1581C210.734 47.7128 211.427 46.6428 212.413 45.9493C213.398 45.2546 214.862 44.9078 216.805 44.9078C218.57 44.9078 219.883 45.1166 220.746 45.5342C221.608 45.9518 222.217 46.4824 222.569 47.125C222.921 47.7675 223.097 48.9481 223.097 50.6656L223.055 55.2826C223.055 56.5962 223.118 57.5655 223.245 58.1894C223.372 58.8133 223.609 59.4819 223.956 60.1953H220.042C219.939 59.933 219.812 59.5428 219.662 59.0271C219.596 58.7922 219.549 58.6381 219.522 58.5623C218.846 59.2197 218.123 59.7118 217.354 60.0399C216.585 60.368 215.763 60.5321 214.891 60.5321C213.352 60.5321 212.139 60.1145 211.252 59.2793C210.365 58.4442 209.922 57.3878 209.922 56.1127C209.922 55.2677 210.124 54.5145 210.528 53.8534C210.931 53.1922 211.497 52.6852 212.224 52.3334C212.951 51.9817 214 51.6748 215.369 51.4113C217.219 51.0646 218.499 50.7402 219.212 50.4395V50.0455C219.212 49.2849 219.024 48.7431 218.649 48.4199C218.274 48.0956 217.565 47.934 216.524 47.934C215.821 47.934 215.271 48.0719 214.877 48.3491C214.482 48.625 214.163 49.1109 213.919 49.8056ZM219.212 53.0145C218.705 53.1835 217.903 53.3848 216.805 53.6197C215.708 53.8546 214.989 54.0845 214.651 54.3095C214.135 54.6748 213.877 55.1396 213.877 55.7026C213.877 56.2569 214.083 56.7354 214.496 57.138C214.908 57.5419 215.434 57.7433 216.073 57.7433C216.786 57.7433 217.466 57.5084 218.114 57.0399C218.592 56.6832 218.906 56.247 219.057 55.7312C219.16 55.3932 219.212 54.7506 219.212 53.8024V53.0145Z" fill="white"/>
<path d="M225.123 45.2446H229.332L232.908 55.858L236.399 45.2446H240.495L235.217 59.631L234.274 62.2347C233.927 63.1071 233.595 63.7732 233.281 64.2331C232.966 64.6929 232.605 65.0657 232.197 65.3516C231.789 65.6374 231.287 65.8611 230.691 66.0202C230.095 66.1793 229.422 66.26 228.671 66.26C227.911 66.26 227.165 66.1805 226.433 66.0202L226.081 62.9232C226.7 63.045 227.259 63.1059 227.757 63.1059C228.676 63.1059 229.356 62.8362 229.797 62.2968C230.238 61.7575 230.576 61.0702 230.811 60.235L225.123 45.2446Z" fill="white"/>
<path d="M81.668 26.4402V24.7363L86.6789 24.7264V30.0915C85.9108 30.8396 85.1167 31.4026 84.2965 31.7804C83.4762 32.1582 82.6324 32.3471 81.7662 32.3471C80.6104 32.3471 79.5801 32.0588 78.6741 31.4796C77.7681 30.9017 77.0511 30.0579 76.5229 28.9481C75.9947 27.8383 75.73 26.5048 75.73 24.9488C75.73 23.373 75.9959 21.9997 76.5278 20.8315C77.0598 19.6633 77.7557 18.7995 78.6145 18.2453C79.4745 17.6897 80.4911 17.4126 81.6667 17.4126C82.533 17.4126 83.2911 17.5729 83.941 17.8948C84.591 18.2167 85.1254 18.6728 85.5455 19.2631C85.9655 19.8534 86.2812 20.665 86.4912 21.6952L85.0831 22.1675C84.893 21.3535 84.6531 20.7445 84.3648 20.3406C84.0765 19.9367 83.695 19.6198 83.2227 19.3911C82.7504 19.1612 82.2185 19.0469 81.6282 19.0469C80.7682 19.0469 80.0288 19.2556 79.4086 19.6732C78.7885 20.0896 78.2901 20.7395 77.9123 21.6194C77.5345 22.4993 77.3456 23.5743 77.3456 24.8407C77.3456 26.772 77.7495 28.2198 78.5561 29.1805C79.3639 30.1436 80.414 30.6246 81.7065 30.6246C82.3229 30.6246 82.9555 30.4767 83.6017 30.1822C84.248 29.8864 84.7613 29.5359 85.1428 29.1283V26.4402H81.668Z" fill="white"/>
<path d="M88.9932 32.101V17.6674H97.5485V19.3713H90.5578V23.7819H97.1048V25.4857H90.5578V30.3984H97.8231V32.1023H88.9932V32.101Z" fill="white"/>
<path d="M103.023 32.101V19.3713H99.124V17.6674H108.507V19.3713H104.589V32.101H103.023Z" fill="white"/>
<path d="M114.699 32.101V17.6674H116.265V32.101H114.699Z" fill="white"/>
<path d="M122.033 32.101V19.3713H118.135V17.6674H127.518V19.3713H123.599V32.101H122.033Z" fill="white"/>
<path d="M132.971 25.0719C132.971 22.61 133.513 20.7184 134.596 19.3961C135.678 18.0738 137.028 17.4127 138.642 17.4127C139.686 17.4127 140.638 17.7084 141.497 18.2988C142.355 18.8891 143.038 19.7478 143.54 20.8738C144.042 21.9998 144.293 23.3395 144.293 24.8954C144.293 27.0355 143.807 28.7779 142.836 30.1238C141.766 31.6077 140.366 32.3484 138.632 32.3484C136.886 32.3484 135.482 31.5866 134.418 30.0642C133.455 28.6847 132.971 27.0206 132.971 25.0719ZM134.587 25.0955C134.587 26.8764 134.98 28.2572 135.764 29.239C136.548 30.222 137.501 30.7129 138.623 30.7129C139.772 30.7129 140.735 30.217 141.513 29.224C142.291 28.2335 142.68 26.7745 142.68 24.8494C142.68 23.6079 142.48 22.4981 142.08 21.5188C141.771 20.7694 141.307 20.1704 140.686 19.7205C140.066 19.2706 139.389 19.0457 138.653 19.0457C137.471 19.0457 136.498 19.5391 135.734 20.5246C134.968 21.5101 134.587 23.0337 134.587 25.0955Z" fill="white"/>
<path d="M146.232 32.101V17.6674H147.836L154.059 29.0215V17.6674H155.555V32.101H153.951L147.738 20.7445V32.101H146.232Z" fill="white"/>
</svg>
