<svg width="185" height="133" viewBox="0 0 185 133" fill="none" xmlns="http://www.w3.org/2000/svg">
<path d="M184.491 132.565H179.341L170.728 119.525V132.565H165.578V111.424H170.728L179.341 124.524V111.424H184.491V132.565Z" fill="#37695F"/>
<path d="M161.846 111.424V132.565H156.696V111.424H161.846Z" fill="#37695F"/>
<path d="M147.652 128.831H139.762L138.497 132.565H133.106L140.756 111.424H146.719L154.368 132.565H148.917L147.652 128.831ZM146.327 124.856L143.707 117.116L141.117 124.856H146.327Z" fill="#37695F"/>
<path d="M125.627 132.565L121.23 124.585H119.996V132.565H114.846V111.424H123.489C125.156 111.424 126.571 111.715 127.735 112.297C128.92 112.88 129.803 113.683 130.386 114.707C130.968 115.711 131.259 116.835 131.259 118.08C131.259 119.485 130.857 120.74 130.054 121.844C129.271 122.948 128.107 123.731 126.561 124.193L131.44 132.565H125.627ZM119.996 120.941H123.188C124.132 120.941 124.834 120.71 125.296 120.248C125.778 119.786 126.019 119.134 126.019 118.291C126.019 117.487 125.778 116.855 125.296 116.393C124.834 115.931 124.132 115.701 123.188 115.701H119.996V120.941Z" fill="#37695F"/>
<path d="M112.262 111.424V115.55H106.66V132.565H101.51V115.55H95.9087V111.424H112.262Z" fill="#37695F"/>
<path d="M93.3209 111.424V132.565H88.1711V111.424H93.3209Z" fill="#37695F"/>
<path d="M86.0188 111.424L78.52 132.565H72.0752L64.5764 111.424H70.0575L75.2976 127.385L80.5679 111.424H86.0188Z" fill="#37695F"/>
<path d="M57.1287 128.831H49.2383L47.9735 132.565H42.5828L50.2322 111.424H56.1951L63.8445 132.565H58.3935L57.1287 128.831ZM55.8036 124.856L53.1835 117.116L50.5935 124.856H55.8036Z" fill="#37695F"/>
<path d="M35.1037 132.565L30.7068 124.585H29.4721V132.565H24.3223V111.424H32.9655C34.6319 111.424 36.0473 111.715 37.2118 112.297C38.3963 112.88 39.2797 113.683 39.862 114.707C40.4442 115.711 40.7353 116.835 40.7353 118.08C40.7353 119.485 40.3338 120.74 39.5307 121.844C38.7477 122.948 37.5832 123.731 36.0373 124.193L40.916 132.565H35.1037ZM29.4721 120.941H32.6643C33.6079 120.941 34.3106 120.71 34.7724 120.248C35.2543 119.786 35.4952 119.134 35.4952 118.291C35.4952 117.487 35.2543 116.855 34.7724 116.393C34.3106 115.931 33.6079 115.701 32.6643 115.701H29.4721V120.941Z" fill="#37695F"/>
<path d="M15.4166 118.11C15.0351 117.407 14.483 116.875 13.7602 116.514C13.0575 116.132 12.2243 115.941 11.2606 115.941C9.59419 115.941 8.25906 116.494 7.2552 117.598C6.25134 118.682 5.74941 120.138 5.74941 121.965C5.74941 123.912 6.27142 125.438 7.31543 126.542C8.37952 127.626 9.83511 128.168 11.6822 128.168C12.9471 128.168 14.0112 127.847 14.8745 127.205C15.7579 126.562 16.4003 125.639 16.8019 124.434H10.2668V120.64H21.4698V125.428C21.0884 126.713 20.4358 127.907 19.5123 129.012C18.6088 130.116 17.4544 131.009 16.049 131.692C14.6436 132.375 13.0575 132.716 11.2907 132.716C9.20268 132.716 7.33551 132.264 5.68918 131.361C4.06293 130.437 2.78803 129.162 1.86448 127.536C0.961013 125.91 0.509277 124.053 0.509277 121.965C0.509277 119.877 0.961013 118.019 1.86448 116.393C2.78803 114.747 4.06293 113.472 5.68918 112.569C7.31543 111.645 9.17257 111.183 11.2606 111.183C13.7903 111.183 15.9185 111.796 17.6451 113.02C19.3918 114.245 20.5463 115.941 21.1084 118.11H15.4166Z" fill="#37695F"/>
<path d="M110.778 26.7427C110.266 21.7443 107.751 16.5092 104.772 12.5002C100.976 7.53131 96.5462 3.56534 91.3803 0C89.7711 0.701774 87.9819 2.23708 86.6399 3.37444C80.8767 8.24115 76.0218 13.7774 73.5234 20.9457C72.7979 23.0268 72.2524 25.2208 72.0806 27.4176C71.8596 30.2408 71.9278 33.3948 72.6424 36.1427C72.7161 36.4224 72.7733 36.8257 72.9152 37.0757C74.3689 42.7007 77.301 48.0863 80.9749 52.5954C81.8505 53.6709 82.9115 54.5878 83.7843 55.6633C84.4907 56.3436 85.2026 57.0158 85.9581 57.6423C86.6918 58.2499 90.7667 61.4147 91.4322 61.4684C91.9313 60.9334 92.8532 60.5542 93.4778 60.1482C94.8524 59.2556 98.4036 56.6824 99.1755 55.4617C99.7674 54.7814 100.455 54.2329 100.992 53.4935C101.783 52.9423 103.567 50.2642 104.24 49.3285C108.798 42.983 112.139 34.6155 110.778 26.7427ZM102.607 48.7746C101.938 49.8179 100.7 50.9929 100.193 51.8694C99.5028 52.5766 98.7964 53.2676 98.0763 53.9479C96.6962 55.4267 93.3387 57.9515 91.5767 58.9598C89.2638 57.5751 86.4954 55.8005 84.7334 53.7597C83.1597 52.4072 81.6568 51.0359 80.4976 49.307C78.0701 45.6906 77.1264 39.3209 76.7255 35.0054C76.7964 33.1098 76.84 31.2787 77.1946 29.4073C78.5584 22.2336 85.4726 12.027 91.5358 7.92386C96.2407 11.6156 100.422 17.055 103.043 22.368C103.76 23.8254 104.306 25.3257 104.92 26.8261L104.95 26.9659C105.258 28.3856 105.738 29.73 105.981 31.1738C106.998 37.272 105.97 43.5208 102.607 48.7746Z" fill="#37695F"/>
<path d="M97.6284 22.1707C97.4111 21.3344 96.8578 19.99 96.1154 19.4448C95.7371 19.0611 95.325 18.7435 94.8536 18.463C93.4394 17.6214 91.7287 17.243 90.083 17.5923C88.5107 17.8887 87.0626 19.0558 86.1988 20.2917C85.2842 21.5991 85.0443 23.3193 85.3943 24.8358C85.7359 26.3151 86.8199 27.6702 88.1805 28.4747C89.6003 29.3136 91.4126 29.5253 93.0357 29.176C94.6136 28.8373 96.0674 27.9004 96.9255 26.6036C97.7921 25.291 98.0208 23.6634 97.6284 22.1707Z" fill="#C7A375"/>
<path d="M99.5178 42.0525C100.304 40.0232 101.164 37.2894 100.138 35.2021C99.1747 33.2414 97.0497 32.0487 94.9939 31.3362C92.0582 30.3203 88.7821 30.6422 85.9986 31.9115C84.3523 32.6635 82.598 34.2363 82.0114 35.9172C81.1066 38.5112 82.7364 40.4138 83.857 42.6119C85.6555 46.1426 85.9599 49.866 84.629 53.5709C86.4192 55.5764 89.2249 57.3154 91.5712 58.6744C93.3587 57.6822 96.7647 55.2044 98.1648 53.7557C98.1537 53.7319 98.1427 53.7108 98.1316 53.687C96.1007 49.2644 97.9186 46.1796 99.5178 42.0525Z" fill="white"/>
<path d="M145.292 69.7052C145.045 69.5184 144.793 69.3343 144.541 69.1556C144.289 68.9769 144.031 68.8009 143.774 68.6304C143.516 68.4598 143.254 68.2919 142.991 68.1295C142.728 67.9671 142.462 67.8073 142.191 67.653C141.923 67.4987 141.652 67.3471 141.379 67.2009C141.105 67.0547 140.832 66.9112 140.553 66.7731C140.276 66.635 139.998 66.4997 139.716 66.3697C139.434 66.2398 139.153 66.1152 138.866 65.9934C138.581 65.8716 138.294 65.7552 138.005 65.6414C137.715 65.5277 137.425 65.4221 137.133 65.3166C136.841 65.2137 136.548 65.1135 136.253 65.0187C135.958 64.924 135.663 64.8346 135.366 64.748C135.068 64.6614 134.77 64.5802 134.47 64.5044C134.169 64.4285 133.869 64.3555 133.566 64.2878C133.263 64.2201 132.96 64.1578 132.657 64.101C122.124 62.1869 112.675 65.5061 104.495 72.2041C102.666 73.7229 100.853 75.2553 99.0478 76.8012C97.2911 78.3362 95.5531 79.9363 93.6435 81.2764C95.4914 82.7059 97.8677 83.713 100.029 84.5523C101.25 83.6372 102.355 82.4839 103.522 81.493C108.357 77.3832 113.341 73.2978 119.458 71.3513C125.286 69.4967 131.396 70.179 136.792 73.0163C133.29 77.5944 128.961 81.5877 123.937 84.4115C121.148 85.9791 117.991 87.0647 114.856 87.6549C104.487 89.6015 95.7918 85.7273 87.5928 79.5762C85.5919 78.0736 83.7574 76.3571 81.8317 74.7598C76.9235 70.6879 71.2027 66.6567 65.0125 64.9077C58.9403 63.1913 52.5409 63.0938 46.5465 65.1541C45.4656 65.525 44.3043 65.923 43.3092 66.4888C41.0429 67.3958 39.0421 68.9228 37.0439 70.3008C37.1754 70.6094 37.3095 70.9154 37.4463 71.2186C37.5857 71.5218 37.7252 71.825 37.8727 72.1256C38.0175 72.4261 38.1677 72.7266 38.3206 73.0217C38.4735 73.3195 38.629 73.6146 38.7873 73.907C38.9455 74.1994 39.1091 74.4918 39.2754 74.7815C39.4417 75.0711 39.6107 75.3581 39.785 75.6424C39.9593 75.9267 40.1364 76.2109 40.3161 76.4925C40.4958 76.7741 40.6808 77.0529 40.8659 77.3291C41.0536 77.6052 41.2414 77.8787 41.4372 78.1521C41.6303 78.4229 41.8261 78.6936 42.0272 78.9616C42.2257 79.2296 42.4295 79.4923 42.636 79.7549C42.8426 80.0175 43.0518 80.2774 43.2636 80.5346C43.4755 80.7918 43.6901 81.0463 43.91 81.2981C44.1273 81.5498 44.3499 81.7989 44.5752 82.0453C44.8005 82.2917 45.0258 82.5353 45.2564 82.7763C45.4871 83.0172 45.7204 83.2555 45.9564 83.491C46.1925 83.7265 46.4312 83.9594 46.6725 84.1868C46.9139 84.4169 47.158 84.6416 47.4047 84.8663C47.6515 85.0911 47.9009 85.3104 48.153 85.5269C48.4052 85.7435 48.66 85.9574 48.9174 86.1686C49.1749 86.3798 49.4351 86.5882 49.6952 86.794C49.9581 86.9997 50.2209 87.2001 50.4891 87.3977C50.7573 87.5954 51.0255 87.7903 51.2964 87.9825C51.5673 88.1747 51.8409 88.3616 52.1171 88.5484C52.3934 88.7325 52.6723 88.9165 52.9513 89.0925C53.2329 89.2712 53.5145 89.4472 53.7988 89.6177C54.0831 89.7883 54.3701 89.9562 54.6597 90.1213C54.9494 90.2865 55.2391 90.4462 55.5314 90.6032C55.8237 90.7603 56.1188 90.9146 56.4138 91.0635C56.7088 91.2151 57.0092 91.3613 57.3069 91.5048C57.6073 91.6483 57.9077 91.7863 58.2108 91.9217C58.5138 92.0571 58.8196 92.1897 59.1254 92.317C66.2248 95.2355 74.1074 95.6281 81.5501 93.9279C83.3846 93.5082 85.2486 92.983 86.9866 92.2466C87.7483 91.9217 88.4912 91.5589 89.2154 91.1582C88.0916 90.3162 86.8927 89.569 85.7395 88.7677C84.7632 88.0881 83.7413 87.2407 82.6819 86.7128C82.4432 86.7886 82.2045 86.8644 81.9631 86.9348C81.7217 87.0052 81.483 87.0728 81.2416 87.1405C81.0002 87.2055 80.7562 87.2678 80.5148 87.3273C80.2707 87.3869 80.0267 87.4438 79.7826 87.4952C79.5385 87.5493 79.2918 87.5981 79.0477 87.6441C78.801 87.6901 78.5542 87.7361 78.3075 87.7768C78.0607 87.8174 77.814 87.8553 77.5645 87.8905C77.3178 87.9257 77.0683 87.9582 76.8189 87.9852C76.5695 88.015 76.3227 88.0394 76.0733 88.061C75.8239 88.0827 75.5744 88.1016 75.325 88.1179C75.0756 88.1341 74.8261 88.1477 74.574 88.1585C74.3246 88.1693 74.0752 88.1747 73.8231 88.1801C73.5736 88.1829 73.3215 88.1856 73.0721 88.1829C72.8226 88.1801 72.5705 88.1747 72.3211 88.1666C72.0717 88.1585 71.8222 88.1477 71.5701 88.1314C71.3207 88.1179 71.0713 88.0989 70.8218 88.0773C70.5724 88.0556 70.323 88.0313 70.0735 88.0042C69.8241 87.9771 69.5773 87.9473 69.3279 87.9148C69.0812 87.8823 68.8317 87.8444 68.585 87.8065C68.3382 87.7659 68.0915 87.7253 67.8447 87.6793C67.598 87.6333 67.3539 87.5845 67.1072 87.5331C66.8631 87.4817 66.619 87.4275 66.375 87.3679C66.1309 87.3111 65.8895 87.2488 65.6455 87.1866C65.4041 87.1216 65.1627 87.0566 64.9213 86.9862C64.6799 86.9158 64.4412 86.8427 64.2025 86.7669C63.9638 86.6911 63.7251 86.6126 63.4891 86.5314C63.253 86.4502 63.017 86.3662 62.781 86.2769C62.545 86.1903 62.3116 86.0982 62.081 86.0061C61.8476 85.9141 61.617 85.8166 61.3863 85.7192C61.1557 85.619 60.9277 85.5188 60.6997 85.4132C60.4718 85.3077 60.2465 85.2021 60.0212 85.0911C59.7959 84.9801 59.5733 84.8691 59.3507 84.7526C54.4452 82.1888 48.6412 77.4482 45.8009 72.5966C46.5438 72.158 47.3645 71.8305 48.1638 71.5083C49.7516 71.0264 51.3501 70.5336 52.9995 70.3089C59.2112 69.4642 65.7286 71.3648 70.9345 74.7869C74.0081 76.8093 76.7599 79.2351 79.6217 81.5336C84.2751 85.2697 89.1618 88.9436 94.5312 91.5589C103.049 95.7093 113.335 96.0396 122.226 92.8855C133.059 89.0438 141.097 80.5887 146.011 70.2764C145.785 70.0842 145.539 69.892 145.292 69.7052Z" fill="url(#paint0_linear_239_8199)"/>
<path d="M91.5056 61.1473C90.8442 61.0938 86.7949 57.9471 86.0657 57.3429C85.315 56.72 84.6075 56.0516 83.9055 55.3752C82.6479 56.8617 80.9376 57.8455 79.062 58.3669C75.2945 59.4122 71.6137 58.3107 68.3124 56.4981C61.3222 52.6562 57.159 46.6916 55.0096 39.2004C54.7684 37.9278 54.5434 36.6472 54.2886 35.3773C60.4223 34.7116 66.1441 36.1606 70.9849 39.9944C71.4619 40.3714 71.9308 40.7617 72.3889 41.1628C71.0228 37.9973 70.2178 34.3854 70.2395 30.9366C69.2855 30.5061 68.1579 30.2842 67.1361 30.0463C60.9536 28.6052 54.6627 29.4715 48.7702 31.645C48.5859 31.7119 48.4016 31.7814 48.22 31.8589C48.2335 34.372 48.3121 37.5562 49.0494 39.957C49.2039 41.4328 49.7947 43.0583 50.3341 44.4351C52.4157 49.7528 55.7306 54.6988 60.2489 58.3187C66.1034 63.0108 72.7575 65.6174 80.3928 64.8181C83.2415 64.5186 86.1633 63.6898 88.7762 62.5349C89.5893 62.1739 90.7223 61.4147 91.5273 61.1928L91.5056 61.1473Z" fill="url(#paint1_linear_239_8199)"/>
<path d="M134.827 31.8603C131.084 30.2813 126.991 29.5604 122.954 29.3506C122.524 29.3371 122.094 29.3344 121.667 29.3398C121.237 29.3452 120.807 29.3613 120.38 29.3829C119.95 29.4071 119.522 29.4393 119.095 29.4824C118.668 29.5254 118.24 29.5765 117.816 29.6384C117.391 29.7003 116.967 29.7702 116.545 29.8482C116.123 29.9262 115.703 30.015 115.284 30.1118C114.865 30.2087 114.448 30.3163 114.037 30.4292C113.623 30.5449 113.212 30.6686 112.804 30.8005C112.64 34.2732 112.035 37.5091 110.949 40.8124C111.925 40.1022 112.887 39.3491 113.919 38.7223C118.222 36.105 122.986 35.1958 127.956 35.7795C127.948 35.9732 127.939 36.1642 127.929 36.3579C127.918 36.5515 127.902 36.7425 127.886 36.9362C127.87 37.1299 127.851 37.3208 127.829 37.5118C127.808 37.7028 127.786 37.8965 127.759 38.0875C127.735 38.2785 127.706 38.4695 127.676 38.6604C127.647 38.8514 127.614 39.0424 127.579 39.2307C127.544 39.4217 127.507 39.61 127.469 39.7983C127.429 39.9866 127.389 40.1749 127.346 40.3632C127.303 40.5515 127.257 40.7398 127.208 40.9254C127.16 41.1137 127.109 41.2993 127.058 41.4849C127.004 41.6705 126.95 41.8561 126.894 42.039C126.838 42.2246 126.778 42.4075 126.717 42.5904C126.655 42.7733 126.59 42.9563 126.526 43.1365C126.459 43.3167 126.391 43.4996 126.322 43.6772C126.252 43.8574 126.179 44.0349 126.104 44.2152C126.029 44.3927 125.953 44.5702 125.873 44.7478C125.795 44.9226 125.714 45.1001 125.631 45.2723C125.548 45.4471 125.462 45.6193 125.376 45.7915C125.29 45.9636 125.198 46.1358 125.107 46.3052C125.016 46.4747 124.921 46.6442 124.827 46.8109C124.731 46.9777 124.634 47.1445 124.534 47.3113C124.435 47.478 124.333 47.6421 124.231 47.8035C124.129 47.9676 124.021 48.129 123.914 48.2877C123.806 48.4491 123.696 48.6078 123.586 48.7665C123.476 48.9252 123.363 49.0812 123.247 49.2346C123.132 49.3906 123.016 49.5439 122.898 49.6945C122.78 49.8479 122.659 49.9985 122.538 50.1465C122.417 50.2971 122.29 50.445 122.167 50.5903C122.043 50.7356 121.914 50.8808 121.785 51.0261C121.656 51.1686 121.525 51.3112 121.393 51.4511C121.261 51.591 121.127 51.7308 120.99 51.8653C120.853 52.0025 120.716 52.137 120.576 52.2715C116.953 55.6985 112.049 58.9587 106.872 58.8161C103.916 58.7354 101.223 57.2936 99.1568 55.2277C98.3962 56.449 94.8999 59.0232 93.5427 59.9163C92.9273 60.3225 92.0189 60.7018 91.5271 61.2371L91.5432 61.2801C95.9157 63.4805 99.3772 64.7582 104.344 64.9438C111.675 65.2182 118.802 62.1893 124.126 57.2183C128.955 52.71 131.578 48.0483 133.408 41.7297C134.078 39.419 134.629 37.033 134.712 34.6228C134.903 34.066 134.809 32.5193 134.827 31.8603Z" fill="url(#paint2_linear_239_8199)"/>
<path d="M99.5178 42.0525C100.304 40.0232 101.164 37.2894 100.138 35.2021C99.1747 33.2414 97.0497 32.0487 94.9939 31.3362C92.0582 30.3203 88.7821 30.6422 85.9986 31.9115C84.3523 32.6635 82.598 34.2363 82.0114 35.9172C81.1066 38.5112 82.7364 40.4138 83.857 42.6119C85.6555 46.1427 85.9599 49.866 84.629 53.5709C86.4192 55.5764 89.2249 57.3154 91.5712 58.6744C93.3587 57.6822 96.7647 55.2044 98.1648 53.7557C98.1537 53.7319 98.1427 53.7108 98.1316 53.687C96.1007 49.2644 97.9186 46.1796 99.5178 42.0525Z" fill="url(#paint3_linear_239_8199)"/>
<defs>
<linearGradient id="paint0_linear_239_8199" x1="87.73" y1="99.9325" x2="92.8241" y2="61.0025" gradientUnits="userSpaceOnUse">
<stop stop-color="#37695F"/>
<stop offset="0.9944" stop-color="#74AB99"/>
</linearGradient>
<linearGradient id="paint1_linear_239_8199" x1="78.0745" y1="67.4804" x2="57.2745" y2="24.0508" gradientUnits="userSpaceOnUse">
<stop stop-color="#37695F"/>
<stop offset="0.9944" stop-color="#74AB99"/>
</linearGradient>
<linearGradient id="paint2_linear_239_8199" x1="99.1572" y1="63.8147" x2="135.09" y2="27.0778" gradientUnits="userSpaceOnUse">
<stop stop-color="#37695F"/>
<stop offset="0.9944" stop-color="#74AB99"/>
</linearGradient>
<linearGradient id="paint3_linear_239_8199" x1="86.8229" y1="57.3132" x2="93.0858" y2="30.9585" gradientUnits="userSpaceOnUse">
<stop stop-color="#37695F"/>
<stop offset="0.9944" stop-color="#74AB99"/>
</linearGradient>
</defs>
</svg>
