<svg width="61" height="61" viewBox="0 0 61 61" fill="none" xmlns="http://www.w3.org/2000/svg">
<path d="M57.1494 23.6429C56.1227 22.57 55.0607 21.4644 54.6604 20.4922C54.29 19.6017 54.2682 18.1257 54.2464 16.696C54.2056 14.0382 54.162 11.0263 52.0679 8.93214C49.9737 6.83799 46.9618 6.79442 44.304 6.75357C42.8743 6.73179 41.3983 6.71 40.5078 6.33964C39.5383 5.93933 38.43 4.87728 37.3571 3.85062C35.478 2.04513 33.343 0 30.5 0C27.657 0 25.5247 2.04513 23.6429 3.85062C22.57 4.87728 21.4644 5.93933 20.4922 6.33964C19.6071 6.71 18.1257 6.73179 16.696 6.75357C14.0382 6.79442 11.0263 6.83799 8.93214 8.93214C6.83799 11.0263 6.80804 14.0382 6.75357 16.696C6.73179 18.1257 6.71 19.6017 6.33964 20.4922C5.93933 21.4617 4.87728 22.57 3.85062 23.6429C2.04513 25.522 0 27.657 0 30.5C0 33.343 2.04513 35.4753 3.85062 37.3571C4.87728 38.43 5.93933 39.5356 6.33964 40.5078C6.71 41.3983 6.73179 42.8743 6.75357 44.304C6.79442 46.9618 6.83799 49.9737 8.93214 52.0679C11.0263 54.162 14.0382 54.2056 16.696 54.2464C18.1257 54.2682 19.6017 54.29 20.4922 54.6604C21.4617 55.0607 22.57 56.1227 23.6429 57.1494C25.522 58.9549 27.657 61 30.5 61C33.343 61 35.4753 58.9549 37.3571 57.1494C38.43 56.1227 39.5356 55.0607 40.5078 54.6604C41.3983 54.29 42.8743 54.2682 44.304 54.2464C46.9618 54.2056 49.9737 54.162 52.0679 52.0679C54.162 49.9737 54.2056 46.9618 54.2464 44.304C54.2682 42.8743 54.29 41.3983 54.6604 40.5078C55.0607 39.5383 56.1227 38.43 57.1494 37.3571C58.9549 35.478 61 33.343 61 30.5C61 27.657 58.9549 25.5247 57.1494 23.6429ZM42.9342 25.5056L27.6842 40.7556C27.4819 40.9582 27.2416 41.1189 26.9771 41.2285C26.7126 41.3381 26.4292 41.3946 26.1429 41.3946C25.8566 41.3946 25.5731 41.3381 25.3086 41.2285C25.0441 41.1189 24.8038 40.9582 24.6015 40.7556L18.0658 34.2199C17.8634 34.0175 17.7028 33.7772 17.5933 33.5127C17.4837 33.2483 17.4274 32.9648 17.4274 32.6786C17.4274 32.3923 17.4837 32.1089 17.5933 31.8444C17.7028 31.5799 17.8634 31.3396 18.0658 31.1372C18.4746 30.7284 19.029 30.4988 19.6071 30.4988C19.8934 30.4988 20.1768 30.5552 20.4413 30.6647C20.7058 30.7743 20.9461 30.9348 21.1485 31.1372L26.1429 36.1343L39.8515 22.4229C40.0539 22.2205 40.2942 22.06 40.5587 21.9504C40.8232 21.8409 41.1066 21.7845 41.3929 21.7845C41.6791 21.7845 41.9626 21.8409 42.227 21.9504C42.4915 22.06 42.7318 22.2205 42.9342 22.4229C43.1366 22.6254 43.2972 22.8657 43.4067 23.1301C43.5163 23.3946 43.5726 23.678 43.5726 23.9643C43.5726 24.2505 43.5163 24.534 43.4067 24.7985C43.2972 25.0629 43.1366 25.3032 42.9342 25.5056Z" fill="#3B6A5F"/>
</svg>
